<svg fill="none" xmlns="http://www.w3.org/2000/svg" viewBox="0 0 512 512">
  <path d="M114.4 41.2A19 19 0 0 1 138.8 30l218.6 80.4a19 19 0 0 0 8.7 1l43.8-4.9c3-.3 5.9 0 8.7 1l49.2 18.2a19 19 0 0 1 11.3 24.4l-118 320.8a19 19 0 0 1-24.3 11.3l-196-72.1a19 19 0 0 1-11.3-24.4l16.4-44.5a19 19 0 0 0-11.3-24.4l-89.1-32.8a19 19 0 0 1-11.3-24.3l80.2-218.4Z" fill="#1A1A1A"/>
  <path fill-rule="evenodd" clip-rule="evenodd" d="m359.9 470.3 117.9-320.8a17.6 17.6 0 0 0-10.5-22.6l-49.2-18c-2.6-1-5.3-1.4-8-1l-43.9 4.8c-3.1.4-6.3 0-9.3-1L138.3 31.2a17.6 17.6 0 0 0-22.5 10.4L35.5 260A17.6 17.6 0 0 0 46 282.6l89 32.8a20.4 20.4 0 0 1 12.2 26.2L130.8 386a17.6 17.6 0 0 0 10.4 22.6l196.1 72a17.6 17.6 0 0 0 22.6-10.4Zm-221-440.4a19 19 0 0 0-24.5 11.3L34.2 259.6a19 19 0 0 0 11.3 24.3l89 32.8A19 19 0 0 1 146 341l-16.4 44.5a19 19 0 0 0 11.3 24.4l196 72a19 19 0 0 0 24.4-11.2l118-320.8a19 19 0 0 0-11.4-24.4l-49.2-18.1a19 19 0 0 0-8.7-1l-43.8 4.8c-3 .4-6 0-8.7-1L138.8 29.9Z" fill="#FF7A00"/>
  <path d="M33.6 202.4a14 14 0 0 1 5.2-19.3l133-76.8a14 14 0 0 0 4.7-4.4l15.9-24a14 14 0 0 1 4.7-4.5l28.8-16.6a14 14 0 0 1 19.2 5.2l112.6 195a14 14 0 0 1-5.1 19.2l-118.3 68.3a14 14 0 0 1-19.2-5.1l-14.4-25a14 14 0 0 0-19.2-5.2L129 339.5a14 14 0 0 1-19.2-5.2l-76.2-132Z" fill="#141414"/>
  <path fill-rule="evenodd" clip-rule="evenodd" d="m356.8 257.5-112.6-195a13 13 0 0 0-17.8-4.8l-28.8 16.7a13 13 0 0 0-4.3 4l-15.9 24c-1.3 2-3 3.7-5 4.8L39.2 184a13 13 0 0 0-4.8 17.8l76.2 132a13 13 0 0 0 17.8 4.8l52.4-30.3a15.1 15.1 0 0 1 20.7 5.5l14.4 25a13 13 0 0 0 17.8 4.8l118.3-68.3a13 13 0 0 0 4.7-17.8Zm-318-74.4a14 14 0 0 0-5.2 19.3l76.2 132a14 14 0 0 0 19.2 5l52.5-30.2a14 14 0 0 1 19.2 5.2l14.4 25a14 14 0 0 0 19.2 5.1l118.3-68.3a14 14 0 0 0 5.1-19.2L245.1 62a14 14 0 0 0-19.2-5.2l-28.8 16.6a14 14 0 0 0-4.7 4.5l-15.9 24a14 14 0 0 1-4.7 4.4l-133 76.8Z" fill="#FF7A00"/>
  <path d="M55.9 242.7a14 14 0 0 1 0-19.9l95.2-95.2a14 14 0 0 0 3.4-5.5l7.8-23.5c.7-2.1 1.9-4 3.4-5.5l19.6-19.6a14 14 0 0 1 19.9 0L344.6 213a14 14 0 0 1 0 19.9l-83.7 83.6a14 14 0 0 1-19.9 0l-15.9-16a14 14 0 0 0-20 0l-35.7 35.9a14 14 0 0 1-20 0L56 242.7Z" fill="#141414"/>
  <path fill-rule="evenodd" clip-rule="evenodd" d="M343.8 213.6 204.4 74.3c-5-5.1-13.3-5.1-18.4 0l-19.5 19.5a13 13 0 0 0-3.2 5.1l-7.8 23.6c-.8 2.2-2 4.2-3.7 5.9l-95.2 95.2c-5 5-5 13.3 0 18.4l93.6 93.6c5 5 13.3 5 18.4 0l35.8-35.9c6-5.9 15.5-5.9 21.4 0l16 16c5 5 13.3 5 18.4 0l83.6-83.7c5-5 5-13.3 0-18.4Zm-288 9.2a14 14 0 0 0 0 20l93.7 93.5a14 14 0 0 0 19.9 0l35.8-35.8a14 14 0 0 1 19.9 0l16 15.9a14 14 0 0 0 19.8 0l83.7-83.6a14 14 0 0 0 0-20L205.2 73.6a14 14 0 0 0-20 0l-19.5 19.6a14 14 0 0 0-3.4 5.5l-7.8 23.5c-.7 2.1-1.9 4-3.4 5.5l-95.2 95.2Z" fill="#FF7A00"/>
  <path d="M87 272A14 14 0 0 1 82 253l57.8-100.2c1-1.9 1.7-4 1.8-6.2l1.3-20.8a14 14 0 0 1 1.8-6.2l11-19a14 14 0 0 1 19.3-5.2l146.3 84.4a14 14 0 0 1 5.1 19.2l-50 86.6a14 14 0 0 1-19.2 5.2l-14-8.1a14 14 0 0 0-19.2 5.1l-20.4 35.4a14 14 0 0 1-19.3 5.1L87 272.1Z" fill="#141414"/>
  <path fill-rule="evenodd" clip-rule="evenodd" d="M320.6 180.6 174.4 96.2a13 13 0 0 0-17.8 4.7l-11 19.1a13 13 0 0 0-1.8 5.7l-1.2 20.9c-.2 2.3-.8 4.6-2 6.7l-57.8 100a13 13 0 0 0 4.7 17.9l97.3 56.1a13 13 0 0 0 17.7-4.8l20.5-35.3a15.1 15.1 0 0 1 20.6-5.6l14 8.1a13 13 0 0 0 17.8-4.7l50-86.6a13 13 0 0 0-4.8-17.8ZM82 253A14 14 0 0 0 87 272l97.2 56.1a14 14 0 0 0 19.3-5.1l20.4-35.4a14 14 0 0 1 19.2-5.1l14 8a14 14 0 0 0 19.3-5l50-86.7a14 14 0 0 0-5.2-19.2L174.9 95.3a14 14 0 0 0-19.2 5.1l-11 19a14 14 0 0 0-2 6.3l-1.2 20.8a14 14 0 0 1-1.8 6.2L81.9 253Z" fill="#FF7A00"/>
  <path d="M132.9 280.3a14 14 0 0 1-10-17.3l20.1-75c.6-2 .6-4.3.2-6.4l-2.6-12.8a14 14 0 0 1 .2-6.5l2.8-10.3a14 14 0 0 1 17.2-10l108.8 29.2a14 14 0 0 1 10 17.2L263 249.6a14 14 0 0 1-17.2 10l-3.4-1a14 14 0 0 0-17.2 10l-5.5 20.4a14 14 0 0 1-17.2 10l-69.7-18.7Z" fill="#141414"/>
  <path fill-rule="evenodd" clip-rule="evenodd" d="M269.3 172.2 160.5 143a13 13 0 0 0-16 9.2l-2.7 10.4c-.5 2-.6 4-.2 6l2.6 12.8c.5 2.3.4 4.6-.2 7l-20 74.9a13 13 0 0 0 9.1 16l69.7 18.6a13 13 0 0 0 16-9.2l5.4-20.4c2.2-8 10.5-12.9 18.6-10.7l3.4 1a13 13 0 0 0 16-9.3l16.3-61.2a13 13 0 0 0-9.2-16ZM123 263a14 14 0 0 0 10 17.3l69.7 18.6a14 14 0 0 0 17.2-10l5.5-20.3a14 14 0 0 1 17.2-10l3.4 1a14 14 0 0 0 17.2-10l16.4-61.2a14 14 0 0 0-10-17.2L160.9 142a14 14 0 0 0-17.2 10l-2.8 10.3a14 14 0 0 0-.2 6.5l2.6 12.8a14 14 0 0 1-.2 6.4l-20 75Z" fill="#FF7A00"/>
  <path d="M163.6 279.1a14 14 0 0 1-14.1-14v-58.7a14 14 0 0 0-1.5-6.3l-4-8a14 14 0 0 1-1.5-6.4v-5.1a14 14 0 0 1 14-14H241a14 14 0 0 1 14 14V227c0 7-5.6 12.7-12.6 12.7s-12.7 5.7-12.7 12.7V265a14 14 0 0 1-14 14h-52.1Z" fill="#141414"/>
  <path fill-rule="evenodd" clip-rule="evenodd" d="M241 167.6h-84.5a13 13 0 0 0-13 13v5.1c0 2 .5 4 1.4 5.8l4 8.2c1.1 2 1.6 4.4 1.6 6.7v58.7a13 13 0 0 0 13 13h52.2a13 13 0 0 0 13-13v-12.7c0-7.6 6.1-13.7 13.7-13.7 6.4 0 11.6-5.2 11.6-11.7v-46.4a13 13 0 0 0-13-13ZM149.5 265a14 14 0 0 0 14 14h52.2a14 14 0 0 0 14-14v-12.7c0-7 5.7-12.7 12.7-12.7 7 0 12.7-5.7 12.7-12.7v-46.4a14 14 0 0 0-14.1-14h-84.5a14 14 0 0 0-14 14v5.1c0 2.2.5 4.4 1.4 6.3l4.1 8.1c1 2 1.5 4.2 1.5 6.3v58.7Z" fill="#FF7A00"/>
  <path d="M199.5 262.8a14 14 0 0 1-18.7-6.8L168 228.7a14 14 0 0 0-4-5l-3-2.4a11.4 11.4 0 0 1 2.2-19.3l40.7-19a14 14 0 0 1 18.7 6.8l10 21.6a8 8 0 0 1-3.7 10.5 8 8 0 0 0-3.9 10.5l1.9 4c2.9 6.2.2 13.5-6 16.4l-21.5 10Z" fill="#141414"/>
  <path fill-rule="evenodd" clip-rule="evenodd" d="m204.5 184-40.7 19a10.3 10.3 0 0 0-2 17.4l3 2.4c1.8 1.5 3.2 3.3 4.2 5.5l12.8 27.2a13 13 0 0 0 17.3 6.3l21.5-10c5.6-2.6 8-9.3 5.4-15l-1.8-4a9 9 0 0 1 4.3-11.9c3.4-1.6 5-5.7 3.3-9l-10-21.6a13 13 0 0 0-17.3-6.3Zm-23.7 72a14 14 0 0 0 18.7 6.8l21.5-10a12.3 12.3 0 0 0 6-16.4l-1.9-4A8 8 0 0 1 229 222a8 8 0 0 0 3.8-10.5l-10-21.6A14 14 0 0 0 204 183l-40.7 19a11.4 11.4 0 0 0-2.2 19.3l3 2.3a14 14 0 0 1 4 5.1l12.7 27.3ZM246 416.3l-7-.3v-1c.2-5.8 1.3-10.2 3.3-12.7 2-2.6 4.7-4 8-4 2.4 0 4.4.8 6.3 2.2 1.7 1.3 3.2 2.7 4.6 4.2l3.2 3a4 4 0 0 0 2.6 1c.6 0 1 0 1.5-.4.4-.2.8-.7 1.2-1.4.7-1.4 1.2-4 1.4-7.9v-1l7 .4v1c-.2 5.8-1.2 10.1-3.3 12.7a9.7 9.7 0 0 1-8 3.9c-2.4 0-4.5-.7-6.3-2a39.2 39.2 0 0 1-4.6-4.3 43.1 43.1 0 0 0-3.2-3 4 4 0 0 0-2.6-1c-.6 0-1.1 0-1.5.3-.5.3-.9.8-1.2 1.5-.7 1.3-1.2 3.9-1.4 7.9v1Zm10.6-7.2c1.3 1.4 2.8 2.8 4.5 4a9.2 9.2 0 0 0 5.7 2c3 0 5.4-1.2 7.2-3.6 2-2.3 3-6.4 3.1-12.2l-5-.2-.1.7c-.2 3.5-.7 6-1.4 7.6-.9 1.6-2 2.4-3.6 2.4a5 5 0 0 1-3.3-1.4l-3.2-3a33.7 33.7 0 0 0-4.5-4.1 9 9 0 0 0-5.7-2c-3 0-5.4 1.2-7.3 3.6-1.7 2.1-2.7 6-3 11.2v1l5 .2v-.7c.3-3.6.8-6.1 1.5-7.6.9-1.6 2-2.4 3.6-2.4a5 5 0 0 1 3.2 1.4l3.3 3Zm24.4 25 30.8-61.6h8l-30.7 61.6h-8Zm1.6-1h5.9l29.7-59.6h-5.8l-29.8 59.7Zm59.7-2.7c-1.9 0-3.5-.7-4.8-2-1.3-1.3-2-3-2-4.8 0-1.8.7-3.4 2-4.7 1.3-1.3 3-2 4.8-2 1.9 0 3.5.7 4.8 2 1.3 1.3 2 3 2 4.7 0 1.9-.7 3.5-2 4.8-1.3 1.3-3 2-4.8 2Zm-4.1-10.8a5.5 5.5 0 0 0-1.7 4c0 1.6.5 3 1.7 4.1a5.6 5.6 0 0 0 4 1.7c1.7 0 3-.5 4.2-1.7a5.6 5.6 0 0 0 1.7-4c0-1.6-.6-3-1.7-4.1a5.5 5.5 0 0 0-4.1-1.8c-1.6 0-3 .6-4.1 1.8Z" fill="#FF7A00"/>
</svg>
